<svg width="30" height="30" viewBox="0 0 30 30" fill="none" xmlns="http://www.w3.org/2000/svg">
<path d="M22.25 7.95181C22.25 11.7568 19.0391 14.9036 15 14.9036C10.9609 14.9036 7.75 11.7568 7.75 7.95181C7.75 4.14681 10.9609 1 15 1C19.0391 1 22.25 4.14681 22.25 7.95181Z" fill="white" stroke="#C8C8C8" stroke-width="2"/>
<path d="M1.04985 29H1.03819C1.56975 22.0635 7.586 16.5422 15 16.5422C22.414 16.5422 28.4303 22.0635 28.9618 29H28.9501H28.9351H28.92H28.9047H28.8893H28.8737H28.858H28.8422H28.8261H28.81H28.7937H28.7772H28.7606H28.7439H28.727H28.7099H28.6927H28.6754H28.6579H28.6402H28.6224H28.6045H28.5863H28.568H28.5496H28.531H28.5123H28.4934H28.4743H28.455H28.4357H28.4161H28.3964H28.3765H28.3565H28.3363H28.3159H28.2953H28.2746H28.2538H28.2327H28.2115H28.1901H28.1686H28.1469H28.125H28.1029H28.0807H28.0583H28.0357H28.013H27.99H27.9669H27.9437H27.9202H27.8966H27.8728H27.8488H27.8246H27.8003H27.7757H27.751H27.7261H27.701H27.6758H27.6503H27.6247H27.5989H27.5729H27.5467H27.5203H27.4937H27.467H27.44H27.4129H27.3856H27.358H27.3303H27.3024H27.2743H27.246H27.2175H27.1888H27.16H27.1309H27.1016H27.0721H27.0425H27.0126H26.9825H26.9522H26.9218H26.8911H26.8602H26.8291H26.7978H26.7663H26.7346H26.7027H26.6706H26.6383H26.6057H26.573H26.54H26.5069H26.4735H26.4399H26.4061H26.3721H26.3379H26.3035H26.2688H26.2339H26.1988H26.1635H26.128H26.0923H26.0563H26.0201H25.9837H25.9471H25.9103H25.8732H25.8359H25.7984H25.7607H25.7227H25.6845H25.6461H25.6074H25.5686H25.5295H25.4901H25.4506H25.4108H25.3708H25.3305H25.29H25.2493H25.2083H25.1672H25.1257H25.0841H25.0422H25H24.9577H24.9151H24.8722H24.8291H24.7858H24.7422H24.6984H24.6543H24.61H24.5655H24.5207H24.4757H24.4304H24.3849H24.3391H24.2931H24.2468H24.2003H24.1535H24.1065H24.0592H24.0117H23.9639H23.9159H23.8676H23.819H23.7702H23.7212H23.6719H23.6223H23.5725H23.5224H23.4721H23.4214H23.3706H23.3195H23.2681H23.2164H23.1645H23.1123H23.0599H23.0072H22.9542H22.901H22.8474H22.7937H22.7396H22.6853H22.6307H22.5759H22.5207H22.4653H22.4096H22.3537H22.2975H22.241H22.1842H22.1272H22.0698H22.0122H21.9543H21.8962H21.8377H21.779H21.72H21.6607H21.6012H21.5413H21.4812H21.4208H21.3601H21.2991H21.2378H21.1762H21.1144H21.0523H20.9898H20.9271H20.8641H20.8008H20.7372H20.6733H20.6092H20.5447H20.4799H20.4149H20.3495H20.2839H20.2179H20.1517H20.0852H20.0183H19.9512H19.8837H19.816H19.7479H19.6796H19.6109H19.542H19.4727H19.4032H19.3333H19.2631H19.1926H19.1219H19.0508H18.9793H18.9076H18.8356H18.7633H18.6906H18.6176H18.5444H18.4708H18.3969H18.3227H18.2481H18.1733H18.0981H18.0226H17.9468H17.8707H17.7942H17.7175H17.6404H17.563H17.4852H17.4072H17.3288H17.2501H17.1711H17.0917H17.012H16.932H16.8517H16.771H16.69H16.6087H16.5271H16.4451H16.3628H16.2801H16.1971H16.1138H16.0302H15.9462H15.8619H15.7772H15.6922H15.6069H15.5212H15.4352H15.3488H15.2621H15.1751H15.0877H15H14.9123H14.8249H14.7379H14.6512H14.5648H14.4788H14.3931H14.3078H14.2228H14.1381H14.0538H13.9698H13.8862H13.8029H13.7199H13.6372H13.5549H13.4729H13.3913H13.31H13.229H13.1483H13.068H12.988H12.9083H12.8289H12.7499H12.6712H12.5928H12.5148H12.437H12.3596H12.2825H12.2058H12.1293H12.0532H11.9774H11.9019H11.8267H11.7519H11.6773H11.6031H11.5292H11.4556H11.3824H11.3094H11.2367H11.1644H11.0924H11.0207H10.9492H10.8781H10.8074H10.7369H10.6667H10.5968H10.5273H10.458H10.3891H10.3204H10.2521H10.184H10.1163H10.0488H9.98169H9.91485H9.8483H9.78206H9.71611H9.65046H9.58511H9.52005H9.45529H9.39082H9.32665H9.26277H9.19918H9.13588H9.07288H9.01016H8.94774H8.8856H8.82375H8.76219H8.70092H8.63993H8.57923H8.51881H8.45868H8.39883H8.33926H8.27998H8.22098H8.16226H8.10382H8.04565H7.98777H7.93017H7.87284H7.81579H7.75902H7.70252H7.6463H7.59035H7.53468H7.47927H7.42415H7.36929H7.3147H7.26038H7.20634H7.15256H7.09905H7.0458H6.99283H6.94012H6.88768H6.8355H6.78358H6.73193H6.68054H6.62942H6.57855H6.52795H6.4776H6.42752H6.37769H6.32812H6.27882H6.22976H6.18097H6.13242H6.08414H6.0361H5.98833H5.9408H5.89353H5.8465H5.79973H5.75321H5.70694H5.66091H5.61514H5.56961H5.52433H5.47929H5.4345H5.38996H5.34566H5.3016H5.25779H5.21421H5.17088H5.12779H5.08494H5.04233H4.99996H4.95782H4.91593H4.87427H4.83284H4.79165H4.7507H4.70998H4.66949H4.62924H4.58922H4.54943H4.50987H4.47054H4.43144H4.39256H4.35392H4.3155H4.27731H4.23935H4.20161H4.1641H4.12681H4.08974H4.0529H4.01627H3.97987H3.94369H3.90773H3.87199H3.83647H3.80116H3.76607H3.7312H3.69655H3.66211H3.62788H3.59387H3.56008H3.52649H3.49312H3.45995H3.427H3.39426H3.36173H3.3294H3.29729H3.26538H3.23368H3.20218H3.17089H3.1398H3.10892H3.07824H3.04776H3.01749H2.98741H2.95754H2.92786H2.89839H2.86911H2.84003H2.81115H2.78247H2.75398H2.72568H2.69758H2.66968H2.64197H2.61444H2.58712H2.55998H2.53303H2.50627H2.47971H2.45333H2.42714H2.40113H2.37531H2.34968H2.32423H2.29897H2.27389H2.24899H2.22428H2.19975H2.1754H2.15122H2.12723H2.10342H2.07979H2.05633H2.03305H2.00995H1.98702H1.96427H1.94169H1.91929H1.89706H1.875H1.85311H1.8314H1.80985H1.78848H1.76727H1.74623H1.72536H1.70465H1.68412H1.66374H1.64354H1.62349H1.60362H1.5839H1.56434H1.54495H1.52572H1.50665H1.48774H1.46899H1.45039H1.43195H1.41367H1.39555H1.37758H1.35977H1.34211H1.3246H1.30725H1.29005H1.273H1.2561H1.23936H1.22276H1.20631H1.19001H1.17385H1.15785H1.14199H1.12627H1.1107H1.09527H1.07999H1.06485H1.04985Z" fill="white" stroke="#C8C8C8" stroke-width="2"/>
</svg>
