<svg width="29" height="34" viewBox="0 0 29 34" fill="none" xmlns="http://www.w3.org/2000/svg">
<path d="M2.41663 16.73H7.10734C7.93529 16.73 8.69219 17.2697 9.06246 18.1242C9.43273 18.9787 10.1896 19.5183 11.0176 19.5183H17.9824C18.8103 19.5183 19.5672 18.9787 19.9375 18.1242C20.3077 17.2697 21.0646 16.73 21.8925 16.73H26.5833M2.41663 16.73V12.2687C2.41663 9.92624 2.41663 8.75503 2.81173 7.86035C3.15927 7.07336 3.71382 6.43352 4.39591 6.03253C5.17134 5.57667 6.18643 5.57667 8.21663 5.57667H20.7833C22.8135 5.57667 23.8285 5.57667 24.604 6.03253C25.2861 6.43352 25.8406 7.07336 26.1882 7.86035C26.5833 8.75503 26.5833 9.92624 26.5833 12.2687V16.73M2.41663 16.73V21.1913C2.41663 23.5338 2.41663 24.7049 2.81173 25.5997C3.15927 26.3867 3.71382 27.0265 4.39591 27.4274C5.17134 27.8833 6.18643 27.8833 8.21663 27.8833H20.7833C22.8135 27.8833 23.8285 27.8833 24.604 27.4274C25.2861 27.0265 25.8406 26.3867 26.1882 25.5997C26.5833 24.7049 26.5833 23.5338 26.5833 21.1913V16.73" stroke="#C8C8C8" stroke-width="2" stroke-linecap="round" stroke-linejoin="round"/>
</svg>
