<svg width="18" height="26" viewBox="0 0 18 26" fill="none" xmlns="http://www.w3.org/2000/svg">
<path d="M15.025 16.8562C14.5689 16.627 14.0133 16.8048 13.775 17.2562C13.5548 17.7161 13.7368 18.2678 14.1875 18.5062C15.2875 19.0687 15.9125 19.7562 15.9125 20.4187C15.9125 21.8312 12.9625 23.4062 9.0125 23.4062C5.0625 23.4062 2.1 21.8437 2.1 20.4687C2.1 19.8187 2.725 19.1187 3.825 18.5562C4.15488 18.424 4.3816 18.1165 4.41049 17.7623C4.43939 17.4081 4.2655 17.068 3.96142 16.884C3.65735 16.7 3.27538 16.7038 2.975 16.8937C1.45737 17.4657 0.399347 18.8538 0.25 20.4687C0.25 23.2437 4 25.3312 9 25.3312C14 25.3312 17.75 23.2437 17.75 20.4687C17.6144 18.8398 16.5541 17.434 15.025 16.8562Z" fill="black"/>
<path fill-rule="evenodd" clip-rule="evenodd" d="M8.0625 21.0187V15.6187C3.94612 15.1228 0.928159 11.5066 1.17658 7.36791C1.425 3.2292 4.85385 0 9 0C13.1462 0 16.575 3.2292 16.8234 7.36791C17.0718 11.5066 14.0539 15.1228 9.9375 15.6187V21.0187C9.9375 21.5365 9.51777 21.9562 9 21.9562C8.48223 21.9562 8.0625 21.5365 8.0625 21.0187ZM14.5303 5.55141C13.6023 3.31758 11.4189 1.86367 9 1.86873C5.70986 1.8756 3.04438 4.54108 3.0375 7.83123C3.03245 10.2502 4.48635 12.4335 6.72019 13.3615C8.95402 14.2895 11.527 13.7791 13.2375 12.0687C14.9479 10.3582 15.4583 7.78525 14.5303 5.55141Z" fill="black"/>
<path d="M5.9875 9.21873C6.50527 9.21873 6.925 8.79899 6.925 8.28123C6.925 6.84529 8.08906 5.68123 9.525 5.68123C10.0428 5.68123 10.4625 5.26149 10.4625 4.74373C10.4625 4.22596 10.0428 3.80623 9.525 3.80623C8.33484 3.80954 7.19474 4.2855 6.35552 5.12942C5.51629 5.97333 5.04668 7.11607 5.05 8.30623C5.0533 8.55156 5.15392 8.78553 5.32974 8.95667C5.50556 9.1278 5.74217 9.22207 5.9875 9.21873Z" fill="black"/>
</svg>
