<svg width="113" height="46" viewBox="0 0 113 46" fill="none" xmlns="http://www.w3.org/2000/svg">
<path d="M14.3191 45H5.67906L13.8391 6.84L22.7191 5.64L18.4591 25.68C21.2591 25.44 23.6991 23.8 25.7791 20.76C27.8991 17.72 28.9591 14.44 28.9591 10.92C28.9591 8.36 28.2991 6.36 26.9791 4.92C25.6991 3.48 23.8791 2.76 21.5191 2.76C16.6391 2.76 12.8191 4.06 10.0591 6.66C7.33906 9.22 5.97906 12.78 5.97906 17.34C5.97906 18.1 6.01906 18.76 6.09906 19.32C6.21906 19.88 6.39906 20.42 6.63906 20.94C6.71906 21.1 6.75906 21.22 6.75906 21.3C6.79906 21.34 6.81906 21.38 6.81906 21.42C4.57906 21.42 2.93906 20.96 1.89906 20.04C0.899063 19.08 0.399063 17.6 0.399063 15.6C0.399063 13.6 1.05906 11.6 2.37906 9.6C3.73906 7.6 5.61906 5.8 8.01906 4.2C10.0591 2.88 12.2391 1.86 14.5591 1.14C16.9191 0.379997 19.2191 -3.57628e-06 21.4591 -3.57628e-06C25.8591 -3.57628e-06 29.3191 1.08 31.8391 3.24C34.3591 5.4 35.6191 8.26 35.6191 11.82C35.6191 13.94 35.1391 16.02 34.1791 18.06C33.2591 20.1 31.9591 21.88 30.2791 23.4C28.6791 24.88 26.8591 26 24.8191 26.76C22.7791 27.52 20.5991 27.9 18.2791 27.9H17.9791L14.3191 45ZM49.2536 7.02C49.2536 8.34 48.7736 9.46 47.8136 10.38C46.8936 11.3 45.7736 11.76 44.4536 11.76C43.1336 11.76 42.0136 11.3 41.0936 10.38C40.1736 9.46 39.7136 8.34 39.7136 7.02C39.7136 5.7 40.1736 4.58 41.0936 3.66C42.0136 2.7 43.1336 2.22 44.4536 2.22C45.7736 2.22 46.8936 2.7 47.8136 3.66C48.7736 4.58 49.2536 5.7 49.2536 7.02ZM33.9536 38.16C33.9536 37.64 33.9936 37.06 34.0736 36.42C34.1536 35.74 34.2736 35.02 34.4336 34.26L38.5136 15H47.1536L42.8336 35.4C42.7536 35.76 42.6936 36.1 42.6536 36.42C42.6136 36.7 42.5936 37 42.5936 37.32C42.5936 38.12 42.7736 38.7 43.1336 39.06C43.5336 39.38 44.1736 39.54 45.0536 39.54C46.1736 39.54 47.2336 39.06 48.2336 38.1C49.2336 37.1 49.9736 35.82 50.4536 34.26H52.9736C51.6936 37.9 49.9736 40.66 47.8136 42.54C45.6536 44.42 43.1736 45.36 40.3736 45.36C38.3736 45.36 36.7936 44.74 35.6336 43.5C34.5136 42.22 33.9536 40.44 33.9536 38.16ZM70.8677 19.98C70.8677 21.34 70.5677 22.42 69.9677 23.22C69.4077 23.98 68.6477 24.36 67.6877 24.36C67.3677 24.36 67.0277 24.3 66.6677 24.18C66.3077 24.06 65.9477 23.88 65.5877 23.64C65.8277 23 66.0077 22.38 66.1277 21.78C66.2477 21.18 66.3077 20.62 66.3077 20.1C66.3077 19.3 66.1677 18.7 65.8877 18.3C65.6077 17.86 65.1877 17.64 64.6277 17.64C62.8677 17.64 61.1477 19.68 59.4677 23.76C57.7877 27.8 56.9477 31.64 56.9477 35.28C56.9477 37.12 57.2477 38.42 57.8477 39.18C58.4877 39.94 59.6277 40.32 61.2677 40.32C63.1477 40.32 64.8677 39.9 66.4277 39.06C68.0277 38.18 69.8477 36.58 71.8877 34.26H73.9277C71.6077 38.02 69.0877 40.82 66.3677 42.66C63.6477 44.46 60.6677 45.36 57.4277 45.36C54.3477 45.36 52.0077 44.56 50.4077 42.96C48.8477 41.36 48.0677 38.98 48.0677 35.82C48.0677 33.54 48.4077 31.12 49.0877 28.56C49.8077 26 50.7877 23.72 52.0277 21.72C53.5077 19.32 55.2677 17.52 57.3077 16.32C59.3877 15.08 61.6877 14.46 64.2077 14.46C66.4077 14.46 68.0677 14.94 69.1877 15.9C70.3077 16.82 70.8677 18.18 70.8677 19.98ZM71.395 38.16C71.395 37.64 71.435 37.06 71.515 36.42C71.595 35.74 71.715 35.02 71.875 34.26L78.295 4.2L87.175 3L80.275 35.4C80.195 35.76 80.135 36.1 80.095 36.42C80.055 36.7 80.035 37 80.035 37.32C80.035 38.12 80.215 38.7 80.575 39.06C80.975 39.38 81.615 39.54 82.495 39.54C83.615 39.54 84.675 39.06 85.675 38.1C86.675 37.1 87.415 35.82 87.895 34.26H90.415C89.135 37.9 87.415 40.66 85.255 42.54C83.095 44.42 80.615 45.36 77.815 45.36C75.815 45.36 74.235 44.74 73.075 43.5C71.955 42.22 71.395 40.44 71.395 38.16ZM108.954 20.22C108.954 23.54 107.594 26.44 104.874 28.92C102.154 31.36 98.9136 32.68 95.1536 32.88C95.1136 33.56 95.0736 34.08 95.0336 34.44C95.0336 34.76 95.0336 35.04 95.0336 35.28C95.0336 37.12 95.3336 38.42 95.9336 39.18C96.5736 39.94 97.7136 40.32 99.3536 40.32C101.234 40.32 102.954 39.9 104.514 39.06C106.114 38.18 107.934 36.58 109.974 34.26H112.014C109.694 38.02 107.174 40.82 104.454 42.66C101.734 44.46 98.7536 45.36 95.5136 45.36C92.4336 45.36 90.0936 44.56 88.4936 42.96C86.9336 41.36 86.1536 38.98 86.1536 35.82C86.1536 33.54 86.5136 31.12 87.2336 28.56C87.9536 26 88.9136 23.72 90.1136 21.72C91.5936 19.32 93.3536 17.52 95.3936 16.32C97.4736 15.08 99.7936 14.46 102.354 14.46C104.554 14.46 106.194 14.94 107.274 15.9C108.394 16.82 108.954 18.26 108.954 20.22ZM102.834 17.64C101.474 17.64 100.094 18.86 98.6936 21.3C97.3336 23.7 96.3136 26.6 95.6336 30C97.9536 29.84 99.9736 28.78 101.694 26.82C103.454 24.82 104.334 22.58 104.334 20.1C104.334 19.26 104.214 18.64 103.974 18.24C103.734 17.84 103.354 17.64 102.834 17.64Z" fill="black"/>
</svg>
