<svg width="115" height="54" viewBox="0 0 115 54" fill="none" xmlns="http://www.w3.org/2000/svg">
<circle cx="25.7708" cy="21.3529" r="13.9351" stroke="black" stroke-width="6"/>
<line x1="11.7704" y1="18.2939" x2="4.51995" y2="52.4746" stroke="black" stroke-width="6"/>
<path d="M5.89062 9.57202L8.83586 19.144L12.2155 29.0069" stroke="black" stroke-width="6"/>
<circle cx="3.88235" cy="3.88235" r="3.88235" fill="#54C29B"/>
<path d="M101.619 33.5198L101.619 33.52C100.487 34.5648 99.7384 35.9933 99.384 37.8239L101.619 33.5198ZM101.619 33.5198C102.782 32.4445 104.141 31.9099 105.708 31.9099C106.145 31.9099 106.565 31.9535 106.97 32.0402L106.978 32.0421L106.987 32.0433C107.371 32.0982 107.71 32.2344 108.008 32.4511L108.018 32.4585L108.029 32.4648C108.349 32.6516 108.605 32.9188 108.796 33.2736L108.796 33.2737L108.8 33.2811C108.982 33.5938 109.083 34.0144 109.083 34.5597C109.083 35.1894 108.955 35.7372 108.704 36.2098C108.468 36.6563 107.994 37.0635 107.235 37.4137L107.235 37.4137L107.231 37.4154C106.508 37.7626 105.478 38.0448 104.129 38.2546C102.85 38.4536 101.213 38.5994 99.2173 38.691L99.384 37.8242L101.619 33.5198ZM95.7354 50.1318L95.7354 50.1319L95.7384 50.1352C97.3997 51.9219 99.8007 52.7976 102.899 52.7976C104.777 52.7976 106.55 52.4125 108.215 51.6417C109.89 50.8661 111.475 49.5384 112.972 47.6748L113.125 47.4834L112.937 47.3262L109.946 44.8341L109.75 44.6709L109.591 44.87C108.64 46.0594 107.652 46.9256 106.631 47.4798C105.614 48.0322 104.477 48.3104 103.216 48.3104C101.534 48.3104 100.346 47.8829 99.5949 47.0777C98.8607 46.2578 98.4823 45.1598 98.4823 43.7575C98.4823 43.4266 98.5161 43.0106 98.5855 42.5072C103.865 42.372 107.784 41.6478 110.311 40.3086C111.607 39.6292 112.595 38.7917 113.257 37.79C113.921 36.7863 114.25 35.6311 114.25 34.3331C114.25 33.1513 114.001 32.1245 113.492 31.2636C113.021 30.416 112.391 29.723 111.603 29.1877C110.822 28.6563 109.934 28.2675 108.942 28.0193C107.986 27.7728 107.029 27.6492 106.071 27.6492C104.132 27.6492 102.37 28.0649 100.79 28.9007C99.2187 29.7022 97.8775 30.797 96.7684 32.1833C95.6614 33.5671 94.8023 35.164 94.1896 36.9715L94.1895 36.9714L94.1887 36.9739C93.6062 38.7522 93.3154 40.6211 93.3154 42.5795C93.3154 45.7911 94.111 48.3201 95.7354 50.1318Z" fill="black" stroke="black" stroke-width="0.5"/>
<path d="M80.5812 51.6219L80.5812 51.6219L80.5858 51.6263C81.2516 52.2588 82.1985 52.556 83.386 52.556H87.1013H87.3072L87.3467 52.3539L88.117 48.412L88.1752 48.114H87.8716H84.9145L90.79 18.826L90.85 18.5269H90.5449H85.8327H85.6277L85.5875 18.7278L79.7426 47.9525C79.6502 48.4142 79.6018 48.8095 79.6018 49.1343C79.6018 50.13 79.9255 50.9661 80.5812 51.6219Z" fill="black" stroke="black" stroke-width="0.5"/>
<path d="M59.0707 50.2291L59.0723 50.2307C60.7567 51.9463 62.9537 52.7976 65.6393 52.7976C67.8284 52.7976 69.7514 52.2418 71.3982 51.1233L71.3982 51.1233L71.4008 51.1214C73.044 49.9743 74.3687 48.3211 75.3805 46.1749L75.4868 45.9495L75.2616 45.8425L71.6368 44.1207L71.4242 44.0197L71.3106 44.2259C70.503 45.6916 69.6918 46.7316 68.8831 47.367L68.8831 47.3669L68.8796 47.3697C68.1128 47.9945 67.1883 48.3104 66.0924 48.3104C64.568 48.3104 63.4867 47.8868 62.7943 47.0847C62.0855 46.2333 61.7208 45.1166 61.7208 43.7122C61.7208 43.1593 61.7937 42.5117 61.9425 41.7676L61.9426 41.7671L62.7129 37.8705L62.7132 37.8688C63.0694 35.9989 63.7472 34.5852 64.7287 33.6037C65.7029 32.6295 66.9654 32.1364 68.5391 32.1364C69.7722 32.1364 70.6506 32.4302 71.2212 32.9736L71.221 32.9739L71.2302 32.9818C71.8515 33.5183 72.3284 34.2899 72.6504 35.3143L72.7314 35.5721L72.9822 35.4713L76.9241 33.8854L77.122 33.8058L77.0745 33.5979C76.6687 31.8184 75.7293 30.3778 74.2626 29.2853C72.82 28.188 70.981 27.6492 68.7657 27.6492C66.9457 27.6492 65.2742 28.0505 63.7559 28.8559C62.2741 29.6279 60.9939 30.6928 59.9159 32.048C58.8377 33.4035 58.0087 35.002 57.4267 36.8397C56.8442 38.6488 56.554 40.5928 56.554 42.6701C56.554 45.9422 57.38 48.4758 59.0707 50.2291Z" fill="black" stroke="black" stroke-width="0.5"/>
<path d="M47.7748 24.9601L47.7747 24.9601L47.7736 24.9647C47.6233 25.6139 47.5412 26.0951 47.5412 26.3875C47.5412 26.9379 47.7765 27.3982 48.2229 27.7542C48.6815 28.1198 49.3846 28.2772 50.2772 28.2772C51.3526 28.2772 52.1912 28.08 52.7397 27.6359L52.7398 27.636L52.7458 27.6308C53.2655 27.1819 53.6104 26.6302 53.774 25.98L53.7741 25.98L53.7752 25.9754C53.9255 25.3262 54.0076 24.845 54.0076 24.5526C54.0076 24.0022 53.7723 23.5419 53.3258 23.186C52.8673 22.8204 52.1642 22.663 51.2716 22.663C50.1955 22.663 49.3552 22.8733 48.806 23.3458C48.2838 23.7697 47.9384 24.31 47.7748 24.9601ZM43.7406 51.4059L43.7405 51.406L43.7454 51.41C44.4096 51.9549 45.349 52.2085 46.5256 52.2085H50.006H50.2058L50.2498 52.0136L51.0182 48.6172L51.0873 48.312H50.7744H48.0608L51.9219 31.7145L51.9932 31.4078H51.6784H46.9776H46.7789L46.734 31.6014L42.892 48.1933C42.7994 48.5934 42.75 48.9392 42.75 49.2257C42.75 50.1041 43.0821 50.8372 43.7406 51.4059Z" fill="black" stroke="black" stroke-width="0.5"/>
</svg>
