<svg width="26" height="26" viewBox="0 0 26 26" fill="none" xmlns="http://www.w3.org/2000/svg">
<path d="M8.15 10.1C9.53071 10.1 10.65 8.98071 10.65 7.6C10.65 6.21929 9.53071 5.1 8.15 5.1C6.76929 5.1 5.65 6.21929 5.65 7.6C5.65 8.98071 6.76929 10.1 8.15 10.1Z" fill="black"/>
<path fill-rule="evenodd" clip-rule="evenodd" d="M15.8 0H10.5C4.97715 0 0.5 4.47715 0.5 10V15.3C0.5 20.8228 4.97715 25.3 10.5 25.3H15.8C21.3228 25.3 25.8 20.8228 25.8 15.3V10C25.8 7.34784 24.7464 4.8043 22.8711 2.92893C20.9957 1.05357 18.4522 0 15.8 0ZM10.5 1.875H15.8C19.8574 1.88134 23.2882 4.87995 23.8375 8.9H21.9C16.6835 8.90425 11.8599 11.6728 9.225 16.175C7.57953 14.8679 5.53895 14.1583 3.4375 14.1625H2.375V10C2.38188 5.51554 6.01554 1.88188 10.5 1.875ZM3.4375 16.0375H2.4125C2.68403 18.9853 4.53735 21.5522 7.25 22.7375C7.33959 21.0689 7.71592 19.4283 8.3625 17.8875C6.99807 16.6964 5.24869 16.0393 3.4375 16.0375ZM15.8 23.425H10.5C10.0301 23.4231 9.56133 23.3771 9.1 23.2875C9.25607 16.3267 14.9374 10.7618 21.9 10.75H23.925V15.3C23.9181 19.7845 20.2845 23.4181 15.8 23.425Z" fill="black"/>
</svg>
